# This file uses centimeters as units for non-parametric coordinates.

mtllib frontFloor.mtl
g default
v -4.000000 0.000000 4.000000
v 4.000000 0.000000 4.000000
v -4.000000 0.500000 4.000000
v 4.000000 0.500000 4.000000
v -4.000000 0.500000 0.000000
v 4.000000 0.500000 0.000000
v -4.000000 0.000000 0.000000
v 4.000000 0.000000 0.000000
v 0.000000 0.250000 4.000000
v 0.000000 0.000000 4.000000
v 4.000000 0.250000 4.000000
v 0.000000 0.500000 4.000000
v -4.000000 0.250000 4.000000
v 0.000000 0.500000 2.000000
v 4.000000 0.500000 2.000000
v 0.000000 0.500000 0.000000
v -4.000000 0.500000 2.000000
v 0.000000 0.250000 0.000000
v 4.000000 0.250000 0.000000
v 0.000000 0.000000 0.000000
v -4.000000 0.250000 0.000000
v 0.000000 0.000000 2.000000
v 4.000000 0.000000 2.000000
v -4.000000 0.000000 2.000000
v 4.000000 0.250000 2.000000
v -4.000000 0.250000 2.000000
v -2.000000 0.125000 4.000000
v -4.000000 0.125000 4.000000
v -2.000000 0.000000 4.000000
v 0.000000 0.125000 4.000000
v -2.000000 0.250000 4.000000
v -2.000000 0.500000 3.000000
v -4.000000 0.500000 3.000000
v -2.000000 0.500000 4.000000
v 0.000000 0.500000 3.000000
v -2.000000 0.500000 2.000000
v -2.000000 0.375000 0.000000
v -4.000000 0.375000 0.000000
v -2.000000 0.500000 0.000000
v 0.000000 0.375000 0.000000
v -2.000000 0.250000 0.000000
v -2.000000 0.000000 1.000000
v -4.000000 0.000000 1.000000
v -2.000000 0.000000 0.000000
v 0.000000 0.000000 1.000000
v -2.000000 0.000000 2.000000
v 4.000000 0.125000 3.000000
v 4.000000 0.125000 4.000000
v 4.000000 0.000000 3.000000
v 4.000000 0.125000 2.000000
v 4.000000 0.250000 3.000000
v -4.000000 0.125000 1.000000
v -4.000000 0.125000 0.000000
v -4.000000 0.125000 2.000000
v -4.000000 0.250000 1.000000
v 2.000000 0.125000 4.000000
v 2.000000 0.000000 4.000000
v 2.000000 0.250000 4.000000
v 2.000000 0.375000 4.000000
v 4.000000 0.375000 4.000000
v 2.000000 0.500000 4.000000
v 0.000000 0.375000 4.000000
v -2.000000 0.375000 4.000000
v -4.000000 0.375000 4.000000
v 2.000000 0.500000 3.000000
v 4.000000 0.500000 3.000000
v 2.000000 0.500000 2.000000
v 2.000000 0.500000 1.000000
v 4.000000 0.500000 1.000000
v 2.000000 0.500000 0.000000
v 0.000000 0.500000 1.000000
v -2.000000 0.500000 1.000000
v -4.000000 0.500000 1.000000
v 2.000000 0.375000 0.000000
v 4.000000 0.375000 0.000000
v 2.000000 0.250000 0.000000
v 2.000000 0.125000 0.000000
v 4.000000 0.125000 0.000000
v 2.000000 0.000000 0.000000
v 0.000000 0.125000 0.000000
v -2.000000 0.125000 0.000000
v 2.000000 0.000000 1.000000
v 4.000000 0.000000 1.000000
v 2.000000 0.000000 2.000000
v 2.000000 0.000000 3.000000
v 0.000000 0.000000 3.000000
v -2.000000 0.000000 3.000000
v -4.000000 0.000000 3.000000
v 4.000000 0.125000 1.000000
v 4.000000 0.250000 1.000000
v 4.000000 0.375000 1.000000
v 4.000000 0.375000 2.000000
v 4.000000 0.375000 3.000000
v -4.000000 0.125000 3.000000
v -4.000000 0.250000 3.000000
v -4.000000 0.375000 3.000000
v -4.000000 0.375000 2.000000
v -4.000000 0.375000 1.000000
vt 0.375000 0.000000
vt 0.625000 0.000000
vt 0.375000 0.250000
vt 0.625000 0.250000
vt 0.375000 0.500000
vt 0.625000 0.500000
vt 0.375000 0.750000
vt 0.625000 0.750000
vt 0.375000 1.000000
vt 0.625000 1.000000
vt 0.875000 0.000000
vt 0.875000 0.250000
vt 0.125000 0.000000
vt 0.125000 0.250000
vt 0.500000 0.125000
vt 0.500000 0.000000
vt 0.500000 1.000000
vt 0.625000 0.125000
vt 0.500000 0.250000
vt 0.375000 0.125000
vt 0.500000 0.375000
vt 0.625000 0.375000
vt 0.750000 0.250000
vt 0.500000 0.500000
vt 0.250000 0.250000
vt 0.375000 0.375000
vt 0.500000 0.625000
vt 0.625000 0.625000
vt 0.875000 0.125000
vt 0.500000 0.750000
vt 0.125000 0.125000
vt 0.375000 0.625000
vt 0.500000 0.875000
vt 0.625000 0.875000
vt 0.750000 0.000000
vt 0.500000 1.000000
vt 0.250000 0.000000
vt 0.375000 0.875000
vt 0.750000 0.125000
vt 0.750000 0.000000
vt 0.875000 0.125000
vt 0.750000 0.250000
vt 0.250000 0.125000
vt 0.250000 0.000000
vt 0.250000 0.250000
vt 0.125000 0.125000
vt 0.437500 0.062500
vt 0.375000 0.062500
vt 0.437500 0.000000
vt 0.437500 1.000000
vt 0.500000 0.062500
vt 0.437500 0.125000
vt 0.437500 0.312500
vt 0.312500 0.250000
vt 0.375000 0.312500
vt 0.437500 0.250000
vt 0.500000 0.312500
vt 0.437500 0.375000
vt 0.437500 0.562500
vt 0.125000 0.187500
vt 0.375000 0.562500
vt 0.437500 0.500000
vt 0.500000 0.562500
vt 0.437500 0.625000
vt 0.437500 0.812500
vt 0.187500 0.000000
vt 0.375000 0.812500
vt 0.437500 0.750000
vt 0.500000 0.812500
vt 0.437500 0.875000
vt 0.687500 0.062500
vt 0.625000 0.062500
vt 0.625000 0.937500
vt 0.687500 0.000000
vt 0.750000 0.062500
vt 0.687500 0.125000
vt 0.187500 0.062500
vt 0.125000 0.062500
vt 0.375000 0.687500
vt 0.187500 0.000000
vt 0.250000 0.062500
vt 0.187500 0.125000
vt 0.562500 0.062500
vt 0.562500 0.000000
vt 0.562500 1.000000
vt 0.562500 0.125000
vt 0.562500 0.187500
vt 0.625000 0.187500
vt 0.562500 0.250000
vt 0.500000 0.187500
vt 0.437500 0.187500
vt 0.375000 0.187500
vt 0.562500 0.312500
vt 0.625000 0.312500
vt 0.687500 0.250000
vt 0.562500 0.375000
vt 0.562500 0.437500
vt 0.625000 0.437500
vt 0.812500 0.250000
vt 0.562500 0.500000
vt 0.500000 0.437500
vt 0.437500 0.437500
vt 0.187500 0.250000
vt 0.375000 0.437500
vt 0.562500 0.562500
vt 0.625000 0.562500
vt 0.875000 0.187500
vt 0.562500 0.625000
vt 0.562500 0.687500
vt 0.625000 0.687500
vt 0.875000 0.062500
vt 0.562500 0.750000
vt 0.500000 0.687500
vt 0.437500 0.687500
vt 0.375000 0.687500
vt 0.562500 0.812500
vt 0.625000 0.812500
vt 0.812500 0.000000
vt 0.562500 0.875000
vt 0.562500 0.937500
vt 0.625000 0.937500
vt 0.562500 1.000000
vt 0.500000 0.937500
vt 0.437500 0.937500
vt 0.437500 1.000000
vt 0.312500 0.000000
vt 0.375000 0.937500
vt 0.812500 0.062500
vt 0.812500 0.000000
vt 0.875000 0.062500
vt 0.812500 0.125000
vt 0.812500 0.187500
vt 0.875000 0.187500
vt 0.812500 0.250000
vt 0.750000 0.187500
vt 0.687500 0.187500
vt 0.687500 0.250000
vt 0.312500 0.062500
vt 0.312500 0.000000
vt 0.312500 0.125000
vt 0.312500 0.187500
vt 0.312500 0.250000
vt 0.250000 0.187500
vt 0.187500 0.187500
vt 0.187500 0.250000
vt 0.125000 0.187500
vn 0.000000 0.000000 1.000000
vn 0.000000 0.000000 1.000000
vn 0.000000 0.000000 1.000000
vn 0.000000 0.000000 1.000000
vn 0.000000 1.000000 0.000000
vn 0.000000 1.000000 0.000000
vn 0.000000 1.000000 0.000000
vn 0.000000 1.000000 0.000000
vn 0.000000 0.000000 -1.000000
vn 0.000000 0.000000 -1.000000
vn 0.000000 0.000000 -1.000000
vn 0.000000 0.000000 -1.000000
vn 0.000000 -1.000000 0.000000
vn 0.000000 -1.000000 0.000000
vn 0.000000 -1.000000 0.000000
vn 0.000000 -1.000000 0.000000
vn 1.000000 0.000000 0.000000
vn 1.000000 0.000000 0.000000
vn 1.000000 0.000000 0.000000
vn 1.000000 0.000000 0.000000
vn -1.000000 0.000000 0.000000
vn -1.000000 0.000000 0.000000
vn -1.000000 0.000000 0.000000
vn -1.000000 0.000000 0.000000
vn 0.000000 0.000000 1.000000
vn 0.000000 0.000000 1.000000
vn 0.000000 0.000000 1.000000
vn 0.000000 0.000000 1.000000
vn 0.000000 0.000000 1.000000
vn 0.000000 0.000000 1.000000
vn 0.000000 0.000000 1.000000
vn 0.000000 0.000000 1.000000
vn 0.000000 0.000000 1.000000
vn 0.000000 0.000000 1.000000
vn 0.000000 0.000000 1.000000
vn 0.000000 0.000000 1.000000
vn 0.000000 1.000000 0.000000
vn 0.000000 1.000000 0.000000
vn 0.000000 1.000000 0.000000
vn 0.000000 1.000000 0.000000
vn 0.000000 1.000000 0.000000
vn 0.000000 1.000000 0.000000
vn 0.000000 1.000000 0.000000
vn 0.000000 1.000000 0.000000
vn 0.000000 1.000000 0.000000
vn 0.000000 1.000000 0.000000
vn 0.000000 1.000000 0.000000
vn 0.000000 1.000000 0.000000
vn 0.000000 0.000000 -1.000000
vn 0.000000 0.000000 -1.000000
vn 0.000000 0.000000 -1.000000
vn 0.000000 0.000000 -1.000000
vn 0.000000 0.000000 -1.000000
vn 0.000000 0.000000 -1.000000
vn 0.000000 0.000000 -1.000000
vn 0.000000 0.000000 -1.000000
vn 0.000000 0.000000 -1.000000
vn 0.000000 0.000000 -1.000000
vn 0.000000 0.000000 -1.000000
vn 0.000000 0.000000 -1.000000
vn 0.000000 -1.000000 0.000000
vn 0.000000 -1.000000 0.000000
vn 0.000000 -1.000000 0.000000
vn 0.000000 -1.000000 0.000000
vn 0.000000 -1.000000 0.000000
vn 0.000000 -1.000000 0.000000
vn 0.000000 -1.000000 0.000000
vn 0.000000 -1.000000 0.000000
vn 0.000000 -1.000000 0.000000
vn 0.000000 -1.000000 0.000000
vn 0.000000 -1.000000 0.000000
vn 0.000000 -1.000000 0.000000
vn 1.000000 0.000000 0.000000
vn 1.000000 0.000000 0.000000
vn 1.000000 0.000000 0.000000
vn 1.000000 0.000000 0.000000
vn 1.000000 0.000000 0.000000
vn 1.000000 0.000000 0.000000
vn 1.000000 0.000000 0.000000
vn 1.000000 0.000000 0.000000
vn 1.000000 0.000000 0.000000
vn 1.000000 0.000000 0.000000
vn 1.000000 0.000000 0.000000
vn 1.000000 0.000000 0.000000
vn -1.000000 0.000000 0.000000
vn -1.000000 0.000000 0.000000
vn -1.000000 0.000000 0.000000
vn -1.000000 0.000000 0.000000
vn -1.000000 0.000000 0.000000
vn -1.000000 0.000000 0.000000
vn -1.000000 0.000000 0.000000
vn -1.000000 0.000000 0.000000
vn -1.000000 0.000000 0.000000
vn -1.000000 0.000000 0.000000
vn -1.000000 0.000000 0.000000
vn -1.000000 0.000000 0.000000
vn 0.000000 0.000000 1.000000
vn 0.000000 0.000000 1.000000
vn 0.000000 0.000000 1.000000
vn 0.000000 0.000000 1.000000
vn 0.000000 0.000000 1.000000
vn 0.000000 0.000000 1.000000
vn 0.000000 0.000000 1.000000
vn 0.000000 0.000000 1.000000
vn 0.000000 0.000000 1.000000
vn 0.000000 0.000000 1.000000
vn 0.000000 0.000000 1.000000
vn 0.000000 0.000000 1.000000
vn 0.000000 1.000000 0.000000
vn 0.000000 1.000000 0.000000
vn 0.000000 1.000000 0.000000
vn 0.000000 1.000000 0.000000
vn 0.000000 1.000000 0.000000
vn 0.000000 1.000000 0.000000
vn 0.000000 1.000000 0.000000
vn 0.000000 1.000000 0.000000
vn 0.000000 1.000000 0.000000
vn 0.000000 1.000000 0.000000
vn 0.000000 1.000000 0.000000
vn 0.000000 1.000000 0.000000
vn 0.000000 0.000000 -1.000000
vn 0.000000 0.000000 -1.000000
vn 0.000000 0.000000 -1.000000
vn 0.000000 0.000000 -1.000000
vn 0.000000 0.000000 -1.000000
vn 0.000000 0.000000 -1.000000
vn 0.000000 0.000000 -1.000000
vn 0.000000 0.000000 -1.000000
vn 0.000000 0.000000 -1.000000
vn 0.000000 0.000000 -1.000000
vn 0.000000 0.000000 -1.000000
vn 0.000000 0.000000 -1.000000
vn 0.000000 -1.000000 0.000000
vn 0.000000 -1.000000 0.000000
vn 0.000000 -1.000000 0.000000
vn 0.000000 -1.000000 0.000000
vn 0.000000 -1.000000 0.000000
vn 0.000000 -1.000000 0.000000
vn 0.000000 -1.000000 0.000000
vn 0.000000 -1.000000 0.000000
vn 0.000000 -1.000000 0.000000
vn 0.000000 -1.000000 0.000000
vn 0.000000 -1.000000 0.000000
vn 0.000000 -1.000000 0.000000
vn 1.000000 0.000000 0.000000
vn 1.000000 0.000000 0.000000
vn 1.000000 0.000000 0.000000
vn 1.000000 0.000000 0.000000
vn 1.000000 0.000000 0.000000
vn 1.000000 0.000000 0.000000
vn 1.000000 0.000000 0.000000
vn 1.000000 0.000000 0.000000
vn 1.000000 0.000000 0.000000
vn 1.000000 0.000000 0.000000
vn 1.000000 0.000000 0.000000
vn 1.000000 0.000000 0.000000
vn -1.000000 0.000000 0.000000
vn -1.000000 0.000000 0.000000
vn -1.000000 0.000000 0.000000
vn -1.000000 0.000000 0.000000
vn -1.000000 0.000000 0.000000
vn -1.000000 0.000000 0.000000
vn -1.000000 0.000000 0.000000
vn -1.000000 0.000000 0.000000
vn -1.000000 0.000000 0.000000
vn -1.000000 0.000000 0.000000
vn -1.000000 0.000000 0.000000
vn -1.000000 0.000000 0.000000
vn 0.000000 0.000000 1.000000
vn 0.000000 0.000000 1.000000
vn 0.000000 0.000000 1.000000
vn 0.000000 0.000000 1.000000
vn 0.000000 0.000000 1.000000
vn 0.000000 0.000000 1.000000
vn 0.000000 0.000000 1.000000
vn 0.000000 0.000000 1.000000
vn 0.000000 0.000000 1.000000
vn 0.000000 0.000000 1.000000
vn 0.000000 0.000000 1.000000
vn 0.000000 0.000000 1.000000
vn 0.000000 0.000000 1.000000
vn 0.000000 0.000000 1.000000
vn 0.000000 0.000000 1.000000
vn 0.000000 0.000000 1.000000
vn 0.000000 0.000000 1.000000
vn 0.000000 0.000000 1.000000
vn 0.000000 0.000000 1.000000
vn 0.000000 0.000000 1.000000
vn 0.000000 0.000000 1.000000
vn 0.000000 0.000000 1.000000
vn 0.000000 0.000000 1.000000
vn 0.000000 0.000000 1.000000
vn 0.000000 0.000000 1.000000
vn 0.000000 0.000000 1.000000
vn 0.000000 0.000000 1.000000
vn 0.000000 0.000000 1.000000
vn 0.000000 0.000000 1.000000
vn 0.000000 0.000000 1.000000
vn 0.000000 0.000000 1.000000
vn 0.000000 0.000000 1.000000
vn 0.000000 0.000000 1.000000
vn 0.000000 0.000000 1.000000
vn 0.000000 0.000000 1.000000
vn 0.000000 0.000000 1.000000
vn 0.000000 1.000000 0.000000
vn 0.000000 1.000000 0.000000
vn 0.000000 1.000000 0.000000
vn 0.000000 1.000000 0.000000
vn 0.000000 1.000000 0.000000
vn 0.000000 1.000000 0.000000
vn 0.000000 1.000000 0.000000
vn 0.000000 1.000000 0.000000
vn 0.000000 1.000000 0.000000
vn 0.000000 1.000000 0.000000
vn 0.000000 1.000000 0.000000
vn 0.000000 1.000000 0.000000
vn 0.000000 1.000000 0.000000
vn 0.000000 1.000000 0.000000
vn 0.000000 1.000000 0.000000
vn 0.000000 1.000000 0.000000
vn 0.000000 1.000000 0.000000
vn 0.000000 1.000000 0.000000
vn 0.000000 1.000000 0.000000
vn 0.000000 1.000000 0.000000
vn 0.000000 1.000000 0.000000
vn 0.000000 1.000000 0.000000
vn 0.000000 1.000000 0.000000
vn 0.000000 1.000000 0.000000
vn 0.000000 1.000000 0.000000
vn 0.000000 1.000000 0.000000
vn 0.000000 1.000000 0.000000
vn 0.000000 1.000000 0.000000
vn 0.000000 1.000000 0.000000
vn 0.000000 1.000000 0.000000
vn 0.000000 1.000000 0.000000
vn 0.000000 1.000000 0.000000
vn 0.000000 1.000000 0.000000
vn 0.000000 1.000000 0.000000
vn 0.000000 1.000000 0.000000
vn 0.000000 1.000000 0.000000
vn 0.000000 0.000000 -1.000000
vn 0.000000 0.000000 -1.000000
vn 0.000000 0.000000 -1.000000
vn 0.000000 0.000000 -1.000000
vn 0.000000 0.000000 -1.000000
vn 0.000000 0.000000 -1.000000
vn 0.000000 0.000000 -1.000000
vn 0.000000 0.000000 -1.000000
vn 0.000000 0.000000 -1.000000
vn 0.000000 0.000000 -1.000000
vn 0.000000 0.000000 -1.000000
vn 0.000000 0.000000 -1.000000
vn 0.000000 0.000000 -1.000000
vn 0.000000 0.000000 -1.000000
vn 0.000000 0.000000 -1.000000
vn 0.000000 0.000000 -1.000000
vn 0.000000 0.000000 -1.000000
vn 0.000000 0.000000 -1.000000
vn 0.000000 0.000000 -1.000000
vn 0.000000 0.000000 -1.000000
vn 0.000000 0.000000 -1.000000
vn 0.000000 0.000000 -1.000000
vn 0.000000 0.000000 -1.000000
vn 0.000000 0.000000 -1.000000
vn 0.000000 0.000000 -1.000000
vn 0.000000 0.000000 -1.000000
vn 0.000000 0.000000 -1.000000
vn 0.000000 0.000000 -1.000000
vn 0.000000 0.000000 -1.000000
vn 0.000000 0.000000 -1.000000
vn 0.000000 0.000000 -1.000000
vn 0.000000 0.000000 -1.000000
vn 0.000000 0.000000 -1.000000
vn 0.000000 0.000000 -1.000000
vn 0.000000 0.000000 -1.000000
vn 0.000000 0.000000 -1.000000
vn 0.000000 -1.000000 0.000000
vn 0.000000 -1.000000 0.000000
vn 0.000000 -1.000000 0.000000
vn 0.000000 -1.000000 0.000000
vn 0.000000 -1.000000 0.000000
vn 0.000000 -1.000000 0.000000
vn 0.000000 -1.000000 0.000000
vn 0.000000 -1.000000 0.000000
vn 0.000000 -1.000000 0.000000
vn 0.000000 -1.000000 0.000000
vn 0.000000 -1.000000 0.000000
vn 0.000000 -1.000000 0.000000
vn 0.000000 -1.000000 0.000000
vn 0.000000 -1.000000 0.000000
vn 0.000000 -1.000000 0.000000
vn 0.000000 -1.000000 0.000000
vn 0.000000 -1.000000 0.000000
vn 0.000000 -1.000000 0.000000
vn 0.000000 -1.000000 0.000000
vn 0.000000 -1.000000 0.000000
vn 0.000000 -1.000000 0.000000
vn 0.000000 -1.000000 0.000000
vn 0.000000 -1.000000 0.000000
vn 0.000000 -1.000000 0.000000
vn 0.000000 -1.000000 0.000000
vn 0.000000 -1.000000 0.000000
vn 0.000000 -1.000000 0.000000
vn 0.000000 -1.000000 0.000000
vn 0.000000 -1.000000 0.000000
vn 0.000000 -1.000000 0.000000
vn 0.000000 -1.000000 0.000000
vn 0.000000 -1.000000 0.000000
vn 0.000000 -1.000000 0.000000
vn 0.000000 -1.000000 0.000000
vn 0.000000 -1.000000 0.000000
vn 0.000000 -1.000000 0.000000
vn 1.000000 0.000000 0.000000
vn 1.000000 0.000000 0.000000
vn 1.000000 0.000000 0.000000
vn 1.000000 0.000000 0.000000
vn 1.000000 0.000000 0.000000
vn 1.000000 0.000000 0.000000
vn 1.000000 0.000000 0.000000
vn 1.000000 0.000000 0.000000
vn 1.000000 0.000000 0.000000
vn 1.000000 0.000000 0.000000
vn 1.000000 0.000000 0.000000
vn 1.000000 0.000000 0.000000
vn 1.000000 0.000000 0.000000
vn 1.000000 0.000000 0.000000
vn 1.000000 0.000000 0.000000
vn 1.000000 0.000000 0.000000
vn 1.000000 0.000000 0.000000
vn 1.000000 0.000000 0.000000
vn 1.000000 0.000000 0.000000
vn 1.000000 0.000000 0.000000
vn 1.000000 0.000000 0.000000
vn 1.000000 0.000000 0.000000
vn 1.000000 0.000000 0.000000
vn 1.000000 0.000000 0.000000
vn 1.000000 0.000000 0.000000
vn 1.000000 0.000000 0.000000
vn 1.000000 0.000000 0.000000
vn 1.000000 0.000000 0.000000
vn 1.000000 0.000000 0.000000
vn 1.000000 0.000000 0.000000
vn 1.000000 0.000000 0.000000
vn 1.000000 0.000000 0.000000
vn 1.000000 0.000000 0.000000
vn 1.000000 0.000000 0.000000
vn 1.000000 0.000000 0.000000
vn 1.000000 0.000000 0.000000
vn -1.000000 0.000000 0.000000
vn -1.000000 0.000000 0.000000
vn -1.000000 0.000000 0.000000
vn -1.000000 0.000000 0.000000
vn -1.000000 0.000000 0.000000
vn -1.000000 0.000000 0.000000
vn -1.000000 0.000000 0.000000
vn -1.000000 0.000000 0.000000
vn -1.000000 0.000000 0.000000
vn -1.000000 0.000000 0.000000
vn -1.000000 0.000000 0.000000
vn -1.000000 0.000000 0.000000
vn -1.000000 0.000000 0.000000
vn -1.000000 0.000000 0.000000
vn -1.000000 0.000000 0.000000
vn -1.000000 0.000000 0.000000
vn -1.000000 0.000000 0.000000
vn -1.000000 0.000000 0.000000
vn -1.000000 0.000000 0.000000
vn -1.000000 0.000000 0.000000
vn -1.000000 0.000000 0.000000
vn -1.000000 0.000000 0.000000
vn -1.000000 0.000000 0.000000
vn -1.000000 0.000000 0.000000
vn -1.000000 0.000000 0.000000
vn -1.000000 0.000000 0.000000
vn -1.000000 0.000000 0.000000
vn -1.000000 0.000000 0.000000
vn -1.000000 0.000000 0.000000
vn -1.000000 0.000000 0.000000
vn -1.000000 0.000000 0.000000
vn -1.000000 0.000000 0.000000
vn -1.000000 0.000000 0.000000
vn -1.000000 0.000000 0.000000
vn -1.000000 0.000000 0.000000
vn -1.000000 0.000000 0.000000
s off
g pCube13
usemtl initialShadingGroup
f 31/52/1 13/20/2 28/48/3 27/47/4
f 36/58/5 17/26/6 33/55/7 32/53/8
f 41/64/9 21/32/10 38/61/11 37/59/12
f 46/70/13 24/38/14 43/67/15 42/65/16
f 51/76/17 11/18/18 48/72/19 47/71/20
f 55/82/21 21/46/22 53/78/23 52/77/24
f 30/51/25 10/16/26 57/84/27 56/83/28
f 58/86/29 11/18/30 60/88/31 59/87/32
f 62/90/33 12/19/34 34/56/35 63/91/36
f 35/57/37 12/19/38 61/89/39 65/93/40
f 67/96/41 15/22/42 69/98/43 68/97/44
f 71/101/45 16/24/46 39/62/47 72/102/48
f 40/63/49 16/24/50 70/100/51 74/105/52
f 76/108/53 19/28/54 78/110/55 77/109/56
f 80/113/57 20/30/58 44/68/59 81/114/60
f 45/69/61 20/30/62 79/112/63 82/116/64
f 84/119/65 23/34/66 49/121/67 85/120/68
f 86/123/69 10/36/70 29/125/71 87/124/72
f 50/75/73 23/40/74 83/129/75 89/128/76
f 90/131/77 19/41/78 75/133/79 91/132/80
f 92/135/81 15/42/82 66/137/83 93/136/84
f 54/81/85 24/44/86 88/139/87 94/138/88
f 95/140/89 13/20/90 64/92/91 96/141/92
f 97/143/93 17/45/94 73/145/95 98/144/96
f 28/48/97 1/1/98 29/49/99 27/47/100
f 29/49/101 10/16/102 30/51/103 27/47/104
f 30/51/105 9/15/106 31/52/107 27/47/108
f 33/55/109 3/3/110 34/56/111 32/53/112
f 34/56/113 12/19/114 35/57/115 32/53/116
f 35/57/117 14/21/118 36/58/119 32/53/120
f 38/61/121 5/5/122 39/62/123 37/59/124
f 39/62/125 16/24/126 40/63/127 37/59/128
f 40/63/129 18/27/130 41/64/131 37/59/132
f 43/67/133 7/7/134 44/68/135 42/65/136
f 44/68/137 20/30/138 45/69/139 42/65/140
f 45/69/141 22/33/142 46/70/143 42/65/144
f 48/72/145 2/2/146 49/74/147 47/71/148
f 49/74/149 23/40/150 50/75/151 47/71/152
f 50/75/153 25/39/154 51/76/155 47/71/156
f 53/78/157 7/13/158 43/80/159 52/77/160
f 43/80/161 24/44/162 54/81/163 52/77/164
f 54/81/165 26/43/166 55/82/167 52/77/168
f 57/84/169 2/2/170 48/72/171 56/83/172
f 48/72/173 11/18/174 58/86/175 56/83/176
f 58/86/177 9/15/178 30/51/179 56/83/180
f 60/88/181 4/4/182 61/89/183 59/87/184
f 61/89/185 12/19/186 62/90/187 59/87/188
f 62/90/189 9/15/190 58/86/191 59/87/192
f 34/56/193 3/3/194 64/92/195 63/91/196
f 64/92/197 13/20/198 31/52/199 63/91/200
f 31/52/201 9/15/202 62/90/203 63/91/204
f 61/89/205 4/4/206 66/94/207 65/93/208
f 66/94/209 15/22/210 67/96/211 65/93/212
f 67/96/213 14/21/214 35/57/215 65/93/216
f 69/98/217 6/6/218 70/100/219 68/97/220
f 70/100/221 16/24/222 71/101/223 68/97/224
f 71/101/225 14/21/226 67/96/227 68/97/228
f 39/62/229 5/5/230 73/104/231 72/102/232
f 73/104/233 17/26/234 36/58/235 72/102/236
f 36/58/237 14/21/238 71/101/239 72/102/240
f 70/100/241 6/6/242 75/106/243 74/105/244
f 75/106/245 19/28/246 76/108/247 74/105/248
f 76/108/249 18/27/250 40/63/251 74/105/252
f 78/110/253 8/8/254 79/112/255 77/109/256
f 79/112/257 20/30/258 80/113/259 77/109/260
f 80/113/261 18/27/262 76/108/263 77/109/264
f 44/68/265 7/7/266 53/115/267 81/114/268
f 53/115/269 21/32/270 41/64/271 81/114/272
f 41/64/273 18/27/274 80/113/275 81/114/276
f 79/112/277 8/8/278 83/117/279 82/116/280
f 83/117/281 23/34/282 84/119/283 82/116/284
f 84/119/285 22/33/286 45/69/287 82/116/288
f 49/121/289 2/10/290 57/122/291 85/120/292
f 57/122/293 10/36/294 86/123/295 85/120/296
f 86/123/297 22/33/298 84/119/299 85/120/300
f 29/125/301 1/9/302 88/127/303 87/124/304
f 88/127/305 24/38/306 46/70/307 87/124/308
f 46/70/309 22/33/310 86/123/311 87/124/312
f 83/129/313 8/11/314 78/130/315 89/128/316
f 78/130/317 19/41/318 90/131/319 89/128/320
f 90/131/321 25/39/322 50/75/323 89/128/324
f 75/133/325 6/12/326 69/134/327 91/132/328
f 69/134/329 15/42/330 92/135/331 91/132/332
f 92/135/333 25/39/334 90/131/335 91/132/336
f 66/137/337 4/4/338 60/88/339 93/136/340
f 60/88/341 11/18/342 51/76/343 93/136/344
f 51/76/345 25/39/346 92/135/347 93/136/348
f 88/139/349 1/1/350 28/48/351 94/138/352
f 28/48/353 13/20/354 95/140/355 94/138/356
f 95/140/357 26/43/358 54/81/359 94/138/360
f 64/92/361 3/3/362 33/142/363 96/141/364
f 33/142/365 17/45/366 97/143/367 96/141/368
f 97/143/369 26/43/370 95/140/371 96/141/372
f 73/145/373 5/14/374 38/146/375 98/144/376
f 38/146/377 21/46/378 55/82/379 98/144/380
f 55/82/381 26/43/382 97/143/383 98/144/384
